PathFileType	4	(X/Y/Z)	 s05c0101.trc
DataRate	CameraRate	NumFrames	NumMarkers	Units	OrigDataRate	OrigDataStartFrame	OrigNumFrames
200	200	4	50	mm	200	1751	2000
Frame#	Time	racr			lacr			c7			jug			rlel			rdr			llel			ldr			s2			lic			ric			lasi			rasi			rpsi			lpsi			rgt			lgt			rth1			rth2			rth3			rth4			rlfc			rmfc			rsh1			rsh2			rsh3			rsh4			rlmal			rmmal			rcal			rtoe			rmt5			lth1			lth2			lth4			lth3			llfc			lmfc			lsh1			lsh2			lsh3			lsh4			llmal			lmmal			lcal			ltoe			lmt5			SBIKE			LBIKE			RBIKE			
		X1	Y1	Z1	X2	Y2	Z2	X3	Y3	Z3	X4	Y4	Z4	X5	Y5	Z5	X6	Y6	Z6	X7	Y7	Z7	X8	Y8	Z8	X9	Y9	Z9	X10	Y10	Z10	X11	Y11	Z11	X12	Y12	Z12	X13	Y13	Z13	X14	Y14	Z14	X15	Y15	Z15	X16	Y16	Z16	X17	Y17	Z17	X18	Y18	Z18	X19	Y19	Z19	X20	Y20	Z20	X21	Y21	Z21	X22	Y22	Z22	X23	Y23	Z23	X24	Y24	Z24	X25	Y25	Z25	X26	Y26	Z26	X27	Y27	Z27	X28	Y28	Z28	X29	Y29	Z29	X30	Y30	Z30	X31	Y31	Z31	X32	Y32	Z32	X33	Y33	Z33	X34	Y34	Z34	X35	Y35	Z35	X36	Y36	Z36	X37	Y37	Z37	X38	Y38	Z38	X39	Y39	Z39	X40	Y40	Z40	X41	Y41	Z41	X42	Y42	Z42	X43	Y43	Z43	X44	Y44	Z44	X45	Y45	Z45	X46	Y46	Z46	X47	Y47	Z47	X48	Y48	Z48	X49	Y49	Z49	X50	Y50	Z50	
1751	8.7550	464.509572	1319.554028	-145.278296	457.417164	1333.606228	-391.857617	435.765338	1395.125019	-269.151139	388.481976	1243.405785	-268.131641	515.278834	1089.648876	6.260210	693.104176	923.861091	-69.619265	481.932437	1086.261623	-549.715363	684.925825	932.645763	-452.567698	-131.670746	1175.760615	-257.484643	12.843487	1204.020909	-402.308975	16.721411	1192.137278	-117.220992	63.418801	1148.878838	-373.962839	60.513732	1137.976404	-148.106202	-95.920541	1224.431867	-213.706180	-96.476321	1231.390994	-300.571912	-17.786421	1060.760542	-96.563822	-45.893813	1096.041938	-431.664501	79.870336	991.844459	-83.298200	162.443623	958.448386	-83.167741	215.336513	887.736645	-87.475151	183.319976	986.613802	-95.313908	317.884115	785.040287	-112.869435	307.014607	784.445724	-222.704068	228.773677	723.193126	-88.084526	185.000074	647.247437	-101.847267	112.427003	601.218377	-106.187386	209.241729	629.000157	-126.123792	24.453301	506.846962	-115.002733	51.979181	513.099533	-196.273245	-46.287332	528.427869	-164.795954	148.572822	304.897857	-147.522525	58.097375	361.367432	-88.744253	60.608350	994.072767	-450.096837	141.129657	963.840434	-446.351438	163.213004	992.072066	-432.553789	196.817278	892.845700	-445.680992	300.626076	788.467436	-412.445225	292.157739	770.564129	-306.404696	271.280748	665.129574	-441.462096	283.159650	578.880278	-431.096430	250.159360	496.709871	-434.353220	312.093729	577.279516	-405.553674	238.937666	374.277581	-430.385228	256.966006	395.959269	-353.695006	178.346223	332.683851	-390.047198	472.637402	317.213151	-392.524613	365.732351	290.296956	-457.002168	-259.286826	898.770485	-281.914724	-43.646578	84.702655	-475.329409	-51.907842	80.094723	-77.744946	
1752	8.7600	463.986858	1319.745136	-143.901799	457.584491	1334.044274	-390.632558	435.334207	1395.708593	-267.733529	388.365071	1243.894974	-267.287415	515.055782	1089.492530	6.846326	693.032775	923.964306	-69.558567	483.036087	1087.122701	-548.888128	685.241538	932.211100	-452.357209	-131.281831	1175.601205	-258.782196	14.051369	1203.788739	-403.066699	16.096480	1192.422244	-118.040827	64.173708	1148.525190	-374.655189	60.120956	1138.262112	-148.494132	-95.664376	1224.110398	-215.665535	-95.777348	1231.236403	-302.050254	-17.480066	1062.241066	-97.064351	-45.359132	1095.009816	-432.411580	81.075958	995.290356	-84.072885	164.451220	963.761303	-83.341873	218.968799	894.456467	-87.140071	184.854625	992.497745	-95.337267	323.590910	793.622034	-112.415110	312.828014	792.666185	-222.429844	234.126213	732.080966	-87.837855	189.879667	656.578472	-101.679407	116.946469	610.930668	-106.424338	214.063163	638.042743	-125.914239	28.412060	517.683188	-115.169382	55.512203	523.387825	-196.598430	-42.103503	539.616500	-164.822902	150.986168	314.595761	-147.532870	61.095095	372.563900	-88.107846	59.522565	991.099155	-451.062738	139.190727	958.619474	-447.216971	162.015915	986.254149	-433.400011	192.830624	886.130701	-446.626943	294.010474	779.435463	-413.461033	281.290979	760.760004	-307.310172	266.645864	655.374321	-441.785304	279.216830	569.513025	-431.702719	247.175149	486.879735	-435.263377	307.776338	568.153757	-405.521202	237.081316	364.989055	-431.042388	255.218869	386.918714	-354.454275	176.406188	323.920756	-390.579205	470.582172	306.028872	-392.648065	363.512358	279.872468	-457.178374	-259.297349	898.779612	-281.881432	-43.637668	84.696786	-475.337283	-51.913946	80.097122	-77.760472	
1753	8.7650	463.406841	1320.079226	-142.545727	457.565080	1334.524839	-389.322498	434.926833	1396.462000	-266.516034	387.931974	1244.661643	-266.479350	514.769222	1089.394451	7.424850	692.991130	924.092767	-69.429275	484.054282	1087.928491	-548.129741	685.527621	931.798677	-452.072555	-130.947420	1175.483233	-260.169723	15.527680	1203.188132	-403.516569	15.500790	1192.740081	-118.653572	65.051090	1147.635275	-375.160119	59.865147	1138.631988	-148.786030	-95.748232	1224.131953	-217.116865	-95.058454	1231.092805	-303.686935	-17.164905	1063.893887	-97.503276	-44.801437	1094.029838	-433.138837	82.324944	999.048048	-84.825131	166.555328	969.400939	-83.322223	222.500474	901.275400	-86.758435	186.290157	998.536212	-95.393059	329.193642	802.497219	-112.141007	318.731751	801.123988	-222.115449	239.184483	741.217935	-87.688959	194.938408	665.895789	-101.651731	121.714741	620.702657	-106.554457	218.566982	646.949176	-126.027938	32.552427	528.227331	-115.684049	59.849056	533.723242	-196.648692	-37.645226	550.453115	-165.026364	154.085759	324.439608	-147.398686	64.710406	382.735811	-88.287422	58.534113	988.212054	-452.036329	137.237813	953.569121	-448.130647	160.821176	980.287163	-434.131293	188.885850	879.594052	-447.310095	287.330568	770.431345	-414.316345	273.770318	752.132640	-308.668333	260.809494	645.922549	-442.684027	274.517357	560.149392	-432.381363	243.591673	477.205599	-435.902255	303.027278	559.326398	-405.797395	234.702214	355.936661	-431.507367	253.041450	378.151589	-355.055404	173.884778	315.614036	-390.866489	467.908467	294.969033	-392.748046	360.734762	269.719004	-457.338480	-259.182412	898.804020	-282.029737	-43.638256	84.698583	-475.368531	-51.911263	80.102445	-77.802473	
1754	8.7700	462.785381	1320.491583	-141.262852	457.722902	1334.830601	-388.078248	434.509603	1397.131257	-265.254780	387.667379	1245.290110	-265.618297	514.407374	1089.359525	8.052434	692.912891	924.220890	-69.253155	485.032557	1088.617517	-547.212301	685.800297	931.386495	-451.661901	-129.685883	1174.939409	-262.177427	16.728886	1203.019799	-404.550876	14.906811	1193.171601	-119.397047	65.853252	1146.903743	-375.646360	59.667445	1139.103511	-149.020036	-95.926255	1224.135756	-218.556284	-94.286933	1230.991449	-305.304201	-16.768019	1065.615509	-97.880183	-44.169813	1092.878854	-433.756763	83.707313	1002.888115	-85.125521	168.551810	975.188806	-83.216561	226.108116	908.391948	-86.403024	187.621890	1004.710084	-95.594171	334.571887	811.693046	-111.941050	324.255570	809.838275	-221.647572	244.796799	750.332876	-87.451188	200.186342	675.238790	-101.445490	126.740380	630.382343	-106.567498	223.809178	656.343066	-125.611790	37.171976	538.509327	-115.922303	64.577625	543.785568	-196.667822	-32.481996	561.145835	-164.705599	157.860660	334.175242	-147.373281	68.735185	392.939026	-88.220011	57.575349	985.413495	-452.919248	135.325680	948.611170	-448.946999	159.543441	974.677165	-434.775230	184.867983	873.227563	-448.076495	280.456375	761.587712	-415.078210	266.610864	743.321735	-309.778463	254.114426	636.543233	-443.616632	269.006056	551.042424	-433.082223	239.264524	467.625253	-436.495874	297.486005	550.656655	-406.500170	231.752550	347.535823	-431.795304	250.318223	369.776102	-355.411193	170.849575	307.784806	-391.097302	464.713231	283.961863	-392.789698	357.277799	259.793415	-457.416247	-259.316707	898.809809	-282.049957	-43.634938	84.690296	-475.373866	-51.927145	80.129707	-77.785008	
